<svg id="Layer_2" data-name="Layer 2" xmlns="http://www.w3.org/2000/svg" xmlns:xlink="http://www.w3.org/1999/xlink" viewBox="0 0 181.42 181.42">
  <defs>
    <style>
      .cls-1 {
        fill: #fff;
      }

      .cls-2 {
        fill: url(#radial-gradient);
      }

      .cls-3 {
        clip-path: url(#clippath);
      }

      .cls-4 {
        fill: none;
      }
    </style>
    <clipPath id="clippath">
      <circle class="cls-4" cx="90.71" cy="90.71" r="90.71"/>
    </clipPath>
    <radialGradient id="radial-gradient" cx="175.89" cy="-24.06" fx="-14.45" fy="-189.3" r="252.05" gradientTransform="translate(119.52 -551.57) rotate(92.72) scale(3.63 .07) skewX(-2.82)" gradientUnits="userSpaceOnUse">
      <stop offset="0" stop-color="#ffcc4b"/>
      <stop offset=".15" stop-color="#fdc34a"/>
      <stop offset=".4" stop-color="#fbac48"/>
      <stop offset=".71" stop-color="#f68645"/>
      <stop offset="1" stop-color="#f15c42"/>
    </radialGradient>
  </defs>
  <g id="Logos">
    <g class="cls-3">
      <g>
        <rect class="cls-2" width="181.42" height="181.42"/>
        <g id="b1_2c" data-name="b1/2c">
          <g>
            <path class="cls-1" d="M61.28,76.18v17.55c0,2.5-.59,4.66-1.77,6.47-1.18,1.81-2.75,3.2-4.72,4.16-1.97,.96-4.16,1.44-6.58,1.44s-4.57-.48-6.55-1.44c-1.98-.96-3.57-2.35-4.74-4.16-1.18-1.81-1.77-3.97-1.77-6.47v-17.55h8.06v16.99c0,1.49,.4,2.72,1.21,3.69,.8,.96,2.07,1.43,3.79,1.4,1.72-.03,2.99-.51,3.79-1.44,.81-.93,1.21-2.15,1.21-3.64v-16.99h8.06Z"/>
            <path class="cls-1" d="M79.98,76.26c1.47,0,2.9,.24,4.29,.73,1.39,.49,2.65,1.21,3.77,2.16,1.12,.95,2.02,2.1,2.7,3.45,.68,1.35,1.01,2.87,1.01,4.57,0,2.21-.52,4.12-1.55,5.71-1.03,1.6-2.39,2.81-4.05,3.64-1.67,.83-3.44,1.25-5.3,1.25-1.09,0-2.07-.11-2.93-.32-.86-.22-1.61-.5-2.24-.84v8.54h-8.06v-28.89h12.38Zm-4.31,7.55v6.68c.49,.17,1.01,.32,1.57,.43s1.16,.17,1.79,.17c1.26,0,2.32-.4,3.17-1.19s1.27-1.7,1.27-2.74c0-1.18-.42-2.03-1.27-2.57s-1.9-.8-3.17-.8h-3.36Z"/>
            <path class="cls-1" d="M107.29,76.26v21.78h12.98v7.12h-21.04v-28.89h8.06Z"/>
            <path class="cls-1" d="M135.49,75.62c1.7,0,3.37,.21,5.02,.62,1.65,.42,2.98,.97,3.99,1.66v7.81c-1.24-.72-2.46-1.34-3.67-1.88-1.21-.53-2.63-.8-4.27-.8-.95,0-1.77,.14-2.46,.43-.69,.29-1.04,.76-1.04,1.42,0,.72,.42,1.26,1.25,1.62,.83,.36,1.85,.77,3.06,1.23l3.11,1.16c2.1,.81,3.59,1.9,4.46,3.28,.88,1.38,1.32,2.76,1.32,4.14,0,1.84-.53,3.47-1.59,4.89-1.06,1.42-2.5,2.54-4.31,3.36-1.81,.82-3.84,1.23-6.08,1.23-1.73,0-3.44-.3-5.13-.91-1.7-.6-3.18-1.35-4.44-2.24v-7.81c1.38,1.04,2.87,1.88,4.46,2.54,1.6,.66,3.2,.99,4.81,.99,1.01,0,1.82-.12,2.44-.37,.62-.24,.93-.67,.93-1.27,0-.43-.23-.8-.69-1.12-.46-.32-1.08-.59-1.85-.82l-4.1-1.29c-1.61-.52-2.86-1.22-3.75-2.11-.89-.89-1.51-1.89-1.85-3-.35-1.11-.52-2.23-.52-3.38,0-2.04,.52-3.76,1.55-5.15,1.03-1.39,2.39-2.45,4.05-3.17,1.67-.72,3.44-1.08,5.3-1.08Z"/>
          </g>
          <path class="cls-1" d="M154.58,113.45H26.84v-45.49h127.75v45.49Zm-123.67-4.08h119.59v-37.33H30.91v37.33Z"/>
        </g>
      </g>
    </g>
  </g>
</svg>